<?xml version="1.0" standalone="no"?> 
<!DOCTYPE svg PUBLIC "-//W3C//DTD SVG 1.1//EN" "http://www.w3.org/Graphics/SVG/1.1/DTD/svg11.dtd" >
<svg xmlns="http://www.w3.org/2000/svg">
<defs>
  <font id="sowp" horiz-adv-x="500">
    <font-face font-family="sowp"
      units-per-em="500" ascent="500"
      descent="0" />
    <missing-glyph horiz-adv-x="0" />
    <glyph glyph-name="accessibility"
      unicode="&#xE001;"
      horiz-adv-x="500" d=" M93.264194 419.659945C92.93138 419.654945 92.601269 419.528685 92.35032 419.284785L0.36846169 329.89346C-0.13344554 329.40568 -0.12127451 328.63394 0.39690929 328.16348L40.32138 291.91587L40.32138 231.27085L40.2876 231.27085L40.063575 123.5948C41.222891 114.22373 45.872793 107.4075 53.606425 107.26052C61.155916 107.32852 67.158182 111.16254 68.329851 122.24354L68.329851 225.89958C78.638707 234.31723 80.321832 232.47383 87.935601 226.06849L88.090285 99.56366C88.552675 86.38444 98.862462 84.51398 103.79515 84.5326500000001C110.83879 85.79565 115.7064 87.88951 116.97351 101.02872C116.97351 101.02872 117.26 197.28797 117.4998 225.89958C126.25678 234.04968 130.61327 230.9566700000001 138.47459 225.2239600000001L138.71284 101.67234C140.27387 94.47547 147.04334 90.25701 154.19546 90.28973C159.61675 90.64032 166.56956 94.40482 167.53207 103.54455L167.53207 224.46476C168.71095 224.1014800000001 171.26582 224.31541 171.26582 224.31541C207.33546 223.70936 242.65092 242.3904 250.46046 267.8794C251.55177 275.19373 246.83617 279.1842 240.70292 278.89574C234.56967 278.60728 226.51165 274.24533 222.98716 268.81284C216.14217 257.97385 199.16679 253.51503 186.34661 253.72848C167.2773400000001 254.07223 151.64517 268.95186 150.36392 287.97587C149.0828700000001 306.9996 162.57976 323.83758 181.43051 326.73398C183.8527400000001 327.10616 186.30608 327.23438 188.754 327.11803C200.1116 326.57047 213.85589 321.18746 220.36998 311.8701C224.11932 307.10446 230.3653300000001 303.22022 235.3121 301.92765C240.89229 299.55375 249.48091 302.22962 248.10642 311.95189C242.5021 331.12146 230.67755 345.69274 212.28019 353.33252C197.13611 359.57389 180.25563 360.17092 164.70863 355.01449C164.65503 355.23947 164.53443 355.45335 164.34415 355.62611L94.192297 419.316795C93.93321 419.552025 93.597018 419.665595 93.264194 419.659945zM396.2047800000001 415.467475C389.1611400000001 414.2044650000001 384.2935300000001 412.110615 383.0264100000001 398.97141C383.0264100000001 398.97141 382.7399300000001 302.71038 382.5001400000001 274.09876C373.7431500000001 265.94866 369.3866500000001 269.04168 361.5253400000001 274.7743900000001L361.28709 398.326C359.72606 405.522875 352.9566 409.743095 345.80447 409.710385C340.38319 409.359785 333.43037 405.595305 332.46787 396.45557L332.46787 275.53536C331.28899 275.8986300000001 328.73412 275.68293 328.73412 275.68293C292.66447 276.2889800000001 257.34899 257.60795 249.53947 232.11895C248.4481500000001 224.80461 253.16376 220.81414 259.2970000000001 221.1026C265.43025 221.39107 273.48827 225.75479 277.0127700000001 231.18729C283.8577700000001 242.02627 300.8331300000001 246.48332 313.6533100000001 246.2698700000001C332.7225900000001 245.9261200000001 348.35475 231.04827 349.6360100000001 212.02426C350.9170600000001 193.0005200000001 337.4201700000001 176.1607600000001 318.5694200000001 173.26436C316.14719 172.89218 313.69384 172.76397 311.2459300000001 172.88032C299.8883300000001 173.42788 286.1440500000001 178.81089 279.6299500000001 188.12825C275.8806100000001 192.8939 269.6346200000001 196.7799 264.6878300000001 198.07247C259.1076600000001 200.44636 250.5190300000001 197.76873 251.8935100000001 188.04646C257.4978400000001 168.87689 269.3223800000001 154.30738 287.7197400000001 146.6676C302.8638200000001 140.42623 319.7442900000001 139.82921 335.2912900000001 144.98564C335.3448900000001 144.76065 335.4654900000001 144.54677 335.6557700000001 144.37401L405.8076300000001 80.68333C406.0667300000001 80.4481 406.4029100000001 80.33453 406.7357300000001 80.34018C407.0685500000001 80.34518 407.3986600000001 80.46966 407.6496200000001 80.7135500000001L499.63147 170.1066700000001C500.13338 170.5944500000001 500.12121 171.3661900000001 499.6030700000001 171.8366400000001L459.6786000000001 208.08248L459.6786000000001 268.7292700000001L459.7124000000001 268.7292700000001L459.9364300000001 376.4035500000001C458.7771100000001 385.7746100000001 454.1272100000001 392.5908400000001 446.3935800000001 392.7378200000001C438.8440900000001 392.6698200000001 432.8418200000001 388.8375900000001 431.6701500000001 377.7565900000001L431.6701500000001 274.0987600000001C421.3612900000001 265.68111 419.6781700000001 267.52451 412.0644000000001 273.92985L411.90968 400.434675C411.44729 413.613895 401.13751 415.486135 396.20481 415.467475z" />
    <glyph glyph-name="arrow"
      unicode="&#xE002;"
      horiz-adv-x="500" d=" M500 150.47302L250.96301 392.8984L249.66383 391.64778L249.58823 391.72098L228.61215 371.39158L206.65917 350.26744L206.73767 350.1915400000001L0.0000025 149.82747L44.205695 107.10161L250.78507 307.31228L455.69611 107.84205L499.99991 150.47318z" />
    <glyph glyph-name="circle-facebook"
      unicode="&#xE003;"
      horiz-adv-x="500" d=" M285.61239 372.22336C269.61483 372.63094 252.49643 369.3703 241.08416 357.24476C230.07948 346.03628 225.59609 331.77095 225.79988 316.48666C225.49419 305.27818 225.79988 293.25454 225.49419 281.84227L187.79295 281.43469L187.79295 238.63869L225.6979800000001 238.63869L225.6979800000001 127.16528L270.2262100000001 127.16528L270.2262100000001 239.14816C282.7593200000001 239.14816 295.2924400000001 239.14816 307.7236600000001 239.35196C309.5577700000001 253.61729 311.7994700000001 268.08642 313.2260000000001 282.55554L270.0224200000001 282.55554C271.0413700000001 295.39434 269.0034600000001 308.53883 272.0603200000001 321.27574C276.9512900000001 335.23539 294.7829600000001 330.85389 306.2971300000001 331.66905C313.4297900000001 329.93683 316.0790700000001 332.68801 314.75443 339.00551L314.75443 370.59304C304.56491 371.61199 294.37538 372.32526 285.20481 372.22336z M249.94905 500.00001C112.08478 500.00001 0 387.91523 0 250.05096C0 112.18668 112.08478 0.00001 249.94905 0.00001C387.81333 0.00001 500 112.08479 500 250.05096C500 387.91523 387.91522 500.00001 249.94905 500.00001zM249.94905 453.63767C362.74709 453.63767 453.73955 362.7471 453.73955 250.05096C453.73955 137.25291 362.74709 46.26045 249.94905 46.26045C137.2529 46.26045 46.362339 137.25291 46.362339 250.05096C46.362339 362.7471 137.2529 453.63767 249.94905 453.63767z" />
    <glyph glyph-name="circle-instagram"
      unicode="&#xE004;"
      horiz-adv-x="500" d=" M189.7 103.62748C156.1 102.60853 120.1 120.94967 109.7 155.59406C98.9 192.27635 103.7 230.99654 102.7 267.67883C103.1 304.3611200000001 100.2 348.17608 130.4 374.66885C162.7 403.199526 208 394.0289400000001 247 396.06685C287.2 394.23273 334.4 403.199526 366.6 372.01957C397.4 341.45099 390.3 294.57918 391.6 254.84003C389.2 215.10088 398.2 170.77645 375.1 135.62259C353.1 101.99716 310.1 101.18199 274.1 101.69147C247.1 102.30284 218.1 101.69147 191.1 102.71042zM316 130.12024C344 131.95436 365 158.34523 364.7 186.46832C365.2 231.5060200000001 366.7 276.8494100000001 363.7 321.9890000000001C361.1 350.01019 335.3 369.2684000000001 308.7 368.86082C265.1 370.49114 221.3 371.61199 177.7 368.04565C149.7 366.72102 129.9 340.5339400000001 129.4 313.02222C128.6 267.88262 126.9 222.33545 130.4 177.50154C132.8 150.19361 156.6 129.81456 183 129.61077C225.5 127.57286 268 128.79561 310.6 129.30508L315.9 129.91645zM234.6 174.95415C191.9 180.86408 163.2 229.26432 175.9 270.7356900000001C185.9 313.0222200000001 235.9 336.9676000000001 274.9 319.3397200000001C318.9 303.0364800000001 334.9 242.40881 306.9 205.52273C290.9 182.5963000000001 260.9 170.26697 233.9 175.36174zM260 202.46587C292.6 210.61749 307.2 256.06277 283.8 281.43469C262.8 309.76157 216 301.81374 202.8 269.92053C186.8 237.11026 217.6 194.92562 252.8 201.34502L259.8 201.34502zM321 311.49379C287 320.46057 327 368.96271 340.6 333.70695C344.6 321.47952 332.9000000000001 308.53883 320.9000000000001 311.29z M250 500C114.8 500 4.7 387.91522 4.7 250.05094C4.7 112.18667 114.7 0 250 0C385.2 0 495.3 112.08478 495.3 249.94905C495.3 387.81332 385.2 500 250.2 500zM250 453.63766C360.6 453.63766 449.8 362.74709 449.8 250.05094C449.8 137.2529 360.6 46.26044 250 46.26044C139.4 46.26044 50.2 137.2529 50.2 250.05094C50.2 362.84899 139.4 453.841451 250 453.841451z" />
    <glyph glyph-name="circle-left"
      unicode="&#xE005;"
      horiz-adv-x="500" d=" M12.5 500L16.5 504L2.5 500L16.5 496L12.5 500z M240.68359 495.3496094C206.75042 494.9152708 172.87816 487.480136 141.91406 472.410156C56.662328 433.515168 2.6180896 342.99824 3.2128906 250.80859C1.3677315 147.69139 68.722925 44.18497 170.99023 15.29492C170.98323 15.29792 170.77102 15.40182 170.70312 15.43359C171.10582 15.28198 171.42555 15.16077 171.61914 15.08789C171.67364 15.07269 171.72475 15.05026 171.7793 15.03516L171.74609 15.04102C171.74909 15.04002 171.7817 15.02794 171.7832 15.02734C171.8065 15.02034 171.83022 15.01491 171.85352 15.00781C171.85382 15.00777 171.86874 15.00586 171.86914 15.00586C171.87974 15.00286 171.88989 14.99909 171.90039 14.99609C271.7086300000001 -15.6336199999999 385.56188 23.81158 448.98438 104.85352C448.98838 104.85852 448.99239 104.86249 448.99609 104.86719C449.01459 104.89089 449.03619 104.91185 449.05469 104.93555L449.22266 105.14844L449.25 105.1875C503.20373 172.0217 509.06871 266.10707 477.87695 342.96484L477.8457 343.04883C477.7745 343.25925 477.68524 343.45989 477.61328 343.66992C457.30818 402.9336590000001 408.01254 446.728671 352.57812 470.564453C352.40956 470.636933 352.24485 470.720856 352.07617 470.792969L351.9492200000001 470.847656L351.94727 470.847656C319.3984500000001 486.447754 283.49545 494.8167387 247.4707 495.34375C245.2088 495.3768397 242.94581 495.3785653 240.68359 495.3496094zM142.88281 471.833984L142.41602 471.621094C142.38592 471.607394 142.35823 471.589882 142.32812 471.576172C142.26192 471.543952 142.19313 471.518618 142.12695 471.486328L141.16992 471.019531L141.7207 471.416016L142.88281 471.833984zM351.28125 470.126953L352.05273 469.873047L352.63281 469.519531C352.48489 469.583451 352.33942 469.65512 352.19141 469.71875C352.0223 469.79145 351.85672 469.874939 351.6875 469.947266L351.5957 469.986328C351.49213 470.035998 351.38489 470.077428 351.28125 470.126953zM241.06445 469.417969C243.07362 469.443452 245.08312 469.44154 247.09375 469.412109C279.40443 468.939166 311.75763 461.386852 340.88281 447.402344L341.47656 447.039062L342.18555 446.804688C392.38216 425.259422 436.05421 385.72196 453.31055 334.65234C453.31255 334.64734 453.31441 334.64202 453.31641 334.63672L453.4668 334.20117L453.59961 333.8730500000001C481.86468 264.84152 476.18728 179.85551 429.04883 121.4668L429.09375 121.51172L428.82617 121.16992C428.80727 121.14662 428.79224 121.12096 428.77344 121.09766L428.7168 121.02734L428.625 120.91016C428.596 120.87306 428.5622 120.83976 428.5332 120.80273L427.91016 120.03516L427.95117 120.11523C371.2782900000001 48.35675 267.7039700000001 12.79166 179.63867 39.75C179.63767 39.75042 179.63577 39.75195 179.63477 39.75195L178.96875 39.9375C89.056559 64.81349 27.438892 158.72159 29.140625 250.47656L29.142578 250.5918L29.142578 250.71289L29.142578 250.76562L29.140625 250.81055C28.547549 332.63497 77.459536 414.375835 152.4668 448.712891L153.48438 449.080078L153.91016 449.386719C181.03757 462.465172 210.92699 469.03572 241.06445 469.417969zM476.75781 343.28906L476.98633 342.6855500000001L477.00195 342.63672C476.92725 342.85777 476.83329 343.06844 476.75781 343.28906zM326.26367 338.0605500000001L173.73633 250L326.26367 161.93945L326.26367 181.04492L326.26367 188.6875L220.7207 249.9707L326.26367 310.85938L326.26367 338.0605500000001zM4.1445312 250.93945C4.1436854 250.89385 4.1492475 250.84835 4.1484375 250.80273C4.1488147 250.74473 4.1421581 250.68696 4.1425781 250.62891L4.1425781 250.70898L4.1425781 250.71289L4.1425781 250.7207L4.1445312 250.93945zM3.2070312 250.90625L3.2050781 250.81836L3.2070312 250.65234L3.2070312 250.90625zM179.20312 39.86914L179.41016 39.81055C179.38246 39.81955 179.35387 39.82353 179.32617 39.83203L179.20312 39.86914zM168.93359 16.28711C168.94609 16.27911 169.00369 16.25038 169.02539 16.23828C169.01639 16.24328 168.97104 16.26388 168.96484 16.26758C168.75409 16.39363 168.76628 16.38789 168.93359 16.28711z" />
    <glyph glyph-name="circle-right"
      unicode="&#xE006;"
      horiz-adv-x="500" d=" M12.5 500L16.5 504L2.5 500L16.5 496L12.5 500z M259.30696 4.65629C293.24013 5.09063 327.11239 12.52577 358.0764900000001 27.59575C443.32823 66.49074 497.37246 157.00766 496.77766 249.19731C498.62282 352.3145100000001 431.2676300000001 455.820934 329.00032 484.7109840000001C329.00732 484.707984 329.21953 484.604084 329.28743 484.572314C328.88473 484.723924 328.565 484.845134 328.37141 484.918014C328.31691 484.933214 328.2658 484.955644 328.21125 484.970744L328.24445 484.964844C328.24145 484.965844 328.20885 484.977924 328.20735 484.978524C328.18405 484.9855240000001 328.16035 484.990954 328.13705 484.998054C328.13675 484.998094 328.12185 485.000054 328.12145 485.000054C328.11085 485.003054 328.10065 485.006854 328.09025 485.009854C228.28201 515.6395640000001 114.42876 476.194364 51.006263 395.15242C51.002263 395.14742 50.998263 395.1434200000001 50.994553 395.1387200000001C50.976053 395.11502 50.954453 395.09402 50.935953 395.0703200000001L50.767983 394.85743L50.740643 394.8183300000001C-3.2131768 327.9842 -9.0781568 233.89883 22.113603 157.04106L22.144853 156.95706C22.216053 156.74664 22.305313 156.546 22.377273 156.33597C42.682373 97.07224 91.978013 53.2772200000001 147.41243 29.4414400000001C147.58099 29.3689400000001 147.7457 29.28504 147.91438 29.21293L148.04133 29.15823L148.04333 29.15823C180.59215 13.55813 216.49515 5.18915 252.5199 4.66213C254.7818 4.62903 257.0447900000001 4.62733 259.30701 4.65613zM357.1077400000001 28.17192L357.5745300000001 28.38481C357.6046300000001 28.39851 357.63233 28.41601 357.6624300000001 28.42971C357.72863 28.46191 357.7974200000001 28.48731 357.8636 28.51961L358.82063 28.9864L358.26985 28.58992L357.1077400000001 28.17195zM148.7093000000001 29.87895L147.9378200000001 30.13286L147.35774 30.48637C147.50566 30.42247 147.65113 30.35078 147.79914 30.2871499999999C147.96825 30.2144499999999 148.13383 30.1309699999999 148.30305 30.05864L148.39485 30.01954C148.49842 29.96984 148.60566 29.92844 148.7093 29.87891zM258.9261 30.58794C256.9169300000001 30.56244 254.9074300000001 30.56434 252.8968 30.59394C220.58612 31.06688 188.23292 38.61919 159.10774 52.6037L158.51399 52.96698L157.805 53.20136C107.60839 74.74648 63.936343 114.28394 46.680003 165.35356C46.678003 165.35856 46.676103 165.36386 46.674103 165.36916L46.523713 165.80471L46.390903 166.13283C18.125873 235.16438 23.803273 320.15039 70.941723 378.5391L70.896803 378.4942L71.164383 378.836C71.183283 378.8593 71.198313 378.885 71.217113 378.9083L71.273753 378.9786000000001L71.365553 379.09578C71.394553 379.13288 71.428353 379.1661800000001 71.457353 379.20321L72.080393 379.97078L72.039383 379.8906800000001C128.71226 451.649154 232.28658 487.214244 320.35188 460.255904C320.35288 460.255484 320.35488 460.253904 320.35588 460.253904L321.0219 460.068354C410.9340900000001 435.192364 472.5517600000001 341.28426 470.85003 249.52929L470.84803 249.41405L470.84803 249.29296L470.84803 249.24026L470.85003 249.19536C471.4431 167.37094 422.53112 85.63008 347.5238500000001 51.29302L346.5062700000001 50.9258399999999L346.0804900000001 50.6191999999999C318.9530800000001 37.5407399999999 289.0636600000001 30.9701899999999 258.9262000000001 30.5879499999999zM23.232743 156.71684L23.004223 157.32035L22.988603 157.36915C23.063303 157.1481 23.157263 156.93743 23.232743 156.71681zM173.72688 161.94535L326.2542200000001 250.0059L173.72688 338.06645L173.72688 318.96098L173.72688 311.3184L279.26985 250.0352L173.72688 189.14652L173.72688 161.94535zM495.8460200000001 249.06645C495.8468700000001 249.11205 495.8410200000001 249.15755 495.84202 249.20317C495.84164 249.26117 495.84802 249.31894 495.84802 249.37699L495.84802 249.29689L495.84802 249.29289L495.84802 249.28489L495.84602 249.06614zM496.7835200000001 249.09965L496.7855200000001 249.18755L496.7835200000001 249.35357L496.7835200000001 249.09966zM320.78743 460.136764L320.58039 460.195354C320.60809 460.186354 320.63669 460.182374 320.66439 460.173874L320.78744 460.136764zM331.05696 483.718794C331.04446 483.726794 330.9868599999999 483.755524 330.96516 483.767624C330.97416 483.762624 331.01946 483.742024 331.02566 483.738324C331.23641 483.612274 331.22422 483.618014 331.05686 483.718794z" />
    <glyph glyph-name="circle-twitter"
      unicode="&#xE007;"
      horiz-adv-x="500" d=" M180.9 129.02547C156.9 130.82547 133.3 138.22547 111.7 150.52547L105.7 154.22547L115.7 154.02547C138.7 153.42547 160.7 159.02547 179.7 170.02547C186.7 174.32547 192.7 178.72547 192.7 179.22547C192.7 179.42547 191.7 179.62547 189.7 179.62547C185.7 179.62547 178.7 181.22547 173.7 183.42547C159.7 188.92547 146.7 201.12547 141.5 215.02547C140.5 217.52547 139.8 219.62547 139.9 219.72547C139.9 219.72547 142.4 219.72547 145.3 219.32547C150.3 219.32547 160.3 220.32547 164.3 221.32547C166.3 222.32547 166 222.32547 161.3 223.32547C138.3 230.32547 121.8 251.32547 120 275.32547C119.4 280.32547 119.5 281.32547 120.3 280.32547C130.3 276.32547 134.7 275.32547 142.3 274.32547L146.3 274.32547L144.3 275.82547C140.3 278.82547 133.3 285.82547 130.5 289.32547C118.5 306.32547 116.1 329.32547 124.8 347.32547C127.8 355.02547 129.5 351.32547 132.8 346.82547C145.5 332.42547 164.1 318.12547 182.3 308.82547C196.3 301.62547 209.3 297.22547 224.3 293.82547C232.3 292.52547 248.3 290.82547 248.3 291.32547C249 291.72547 248.3 293.32547 248.3 295.32547C245.1 316.32547 253.3 337.32547 269.3 350.32547C294.3 368.32547 324.1 366.32547 345.1 349.32547L350.1 345.32547L355.5 346.32547C370.5 348.52547 395.5 370.32547 379.8 344.32547C376.8 339.62547 369.8 332.72547 365.4000000000001 329.32547L361.4000000000001 326.82547C361.4000000000001 326.82547 364.4000000000001 327.12547 367.4000000000001 327.82547C373.8 328.82547 385.4000000000001 332.12547 390.8 334.32547L394.3 335.32547L390.3 330.02547C385.3 323.72547 377.3 315.52547 370.3 310.02547L364.3 305.02547L364.3 296.02547C364.3 258.02547 350 219.62547 324.3 188.42547C318.5 181.42547 306.3 169.42547 299.8 164.42547C284.1 152.42547 261.1 141.42547 239.8 136.42547C220.8 131.92547 202.8 130.42547 183 132.0254700000001z M250 496C114.8 496 4.7 383.91522 4.7 246.05095C4.7 108.18667 114.7 -4 250 -4C385.2 -4 495.3 108.08478 495.3 245.94905C495.3 383.81333 385.2 496 250.2 496zM250 449.63766C360.6 449.63766 449.8 358.74709 449.8 246.05095C449.8 133.2529 360.6 42.26044 250 42.26044C139.4 42.26044 50.2 133.2529 50.2 246.0509500000001C50.2 358.84899 139.4 449.841451 250 449.841451z" />
    <glyph glyph-name="circle-youtube"
      unicode="&#xE008;"
      horiz-adv-x="500" d=" M251.4 500C113.7 500 1.4 388 1.4 250C1.4 112.2 113.6 0 251.4 0S501.4 112 501.4 250C501.4 387.8 389.2 500 251.7 500H251.4zM251.4 453.7C364.1 453.7 455 362.7 455 249.7C455 137.3 364 46.7 251.4 46.7C138.8 46.3 48 137.2 48 250C48 362.7 138.8 453.7 251.4 453.7zM257 351C223.2 351 189.6 350.4 155.8 348.7C142.3 348.7 127.2 344.7 118.8 332.3C108.8 315.9 108.8 295.6 107.8 276.9C107.8 245.4 105.5 212.9 112.5 181.9C115.5 168.4 126.1 157.5 139.1 154.2C161.6 150.2 184.1 150.8 206.6 149.8L207 151C256 150.8 305 149.8 354 154C371 154.4 385.4 167.6 388.4 184C395.1 213.7 393.1 244.2 393.1 274.4C391.8 295.1 392.9 318 380.1 335.4C369.5 349.1 351.1 348.4 335.5 349.4C309.5 350.4 283.2 350.8 257.0999999999999 350.8zM221 293.2C245.7 280.2 270.7 267.4 295.3 254.2C297.3 249.2 279.6 244.8 273.6 240.2L273.4000000000001 241.5L221 214V293.2z" />
    <glyph glyph-name="circle"
      unicode="&#xE009;"
      horiz-adv-x="500" d=" M249.94905 500.00001C112.08478 500.00001 0 387.91523 0 250.05096C0 112.18668 112.08478 0.00001 249.94905 0.00001C387.81333 0.00001 500 112.08479 500 250.05096C500 387.91523 387.91522 500.00001 249.94905 500.00001zM249.94905 453.63767C362.74709 453.63767 453.73955 362.7471 453.73955 250.05096C453.73955 137.25291 362.74709 46.26045 249.94905 46.26045C137.2529 46.26045 46.362339 137.25291 46.362339 250.05096C46.362339 362.7471 137.2529 453.63767 249.94905 453.63767z" />
    <glyph glyph-name="clock-15min"
      unicode="&#xE00A;"
      horiz-adv-x="500" d=" M260.47766 499.78017563C201.59578 502.2503502 143.7344 483.837959 97.107966 447.793413C-12.073712 363.3910200000001 -32.212089 206.48054 52.116994 97.24125C136.44509 -11.99859 293.33844 -32.24143 402.63111 52.0169C511.92354 136.27512 532.2689 293.1583 448.08451 402.508625L447.68018 403.031498C402.58383 461.291084 334.08588 496.6917049 260.47766 499.78017563zM233.22885 436.717968C233.06485 308.99144 233.03964 308.90135 232.81106 257.69345C232.69625 231.97388 245.52384 215.3977 275.81005 215.30421L439.14256 215.18797C431.1201 168.06961 405.6791 125.68858 367.86715 96.4534C284.58245 32.24523 165.02395 47.67106 100.7633 130.91603C36.502753 214.15982 51.849127 333.7297700000001 135.04856 398.04676C163.48115 419.9250620000001 197.5137 433.329761 233.22885 436.717885zM276.80231 436.069617C326.45864 429.448841 371.50857 403.53418 402.19655 363.9374400000001L402.50562 363.5400600000001C426.11817 332.84051 439.81272 295.67289 441.7638 256.99172L275.99827 257.11023z" />
    <glyph glyph-name="clock-1h"
      unicode="&#xE00B;"
      horiz-adv-x="500" d=" M260.47765 499.77459324C201.59577 502.2447127 143.73439 483.832733 97.107957 447.788992C-12.07371 363.38849 -32.212096 206.48153 52.116986 97.24469C136.44507 -11.99272 293.33841 -32.23513 402.6311 52.02133C511.92355 136.27766 532.26889 293.1573600000001 448.0845 402.505227L447.68017 403.028077C402.58382 461.286361 334.08587 496.6861915 260.47765 499.77459324zM229.64555 436.325723L229.64555 241.03566C229.53526 204.57128 276.43566 204.07853 276.94405 240.73519L276.94405 436.053834C326.5474500000001 429.400666 371.5402000000001 403.494353 402.19655 363.93489L402.50561 363.53752C466.65699 280.21045 451.15247 160.66248 367.86715 96.45691C284.58244 32.25018 165.02394 47.67566 100.76329 130.91877C36.502732 214.16071 51.849106 333.728 135.04855 398.04355C162.51253 419.16988 195.21846 432.405556 229.64555 436.325723z" />
    <glyph glyph-name="clock-5min"
      unicode="&#xE00C;"
      horiz-adv-x="500" d=" M261.15159 499.35066249C106.55843 511.360463 -28.581101 354.67377 5.5224241 203.57637C29.68657 43.69027 227.29528 -51.57074 367.38509 29.46767C501.61585 95.03697 543.34103 287.63337 448.01405 402.779962C403.89966 460.394963 333.65787 496.6867625 261.15159 499.35066249zM275.14789 435.970662C289.66188 432.111462 321.3997500000001 430.666662 327.21647 418.856862C309.76209 390.3477700000001 292.3076900000001 361.83867 274.8533 333.32957C274.8353 367.54347 274.8493 401.757862 275.1479 435.970662zM226.63866 435.610662C226.93646 373.58357 226.13656 311.51717 226.85076 249.51757C235.50165 212.55527 286.29591 226.13447 291.80129 258.46307C318.47084 303.89497 345.41715 349.16407 372.52818 394.33387C462.03679 326.03097 465.49572 177.45067 378.61556 105.27257C291.13632 21.5172699999999 131.13685 53.00517 81.642944 163.38417C23.071024 271.83657 99.905773 420.437062 222.37939 434.988762L226.63865 435.610762L226.63865 435.610762z" />
    <glyph glyph-name="clock-more"
      unicode="&#xE00D;"
      horiz-adv-x="500" d=" M261.15159 499.35066832C106.55843 511.360436 -28.581102 354.6737500000001 5.5224252 203.57639C29.686572 43.69029 227.2953 -51.57075 367.38509 29.46765C501.61584 95.03697 543.34104 287.6333200000001 448.01405 402.779899C403.89966 460.394968 333.65787 496.6867365 261.15159 499.35066832zM260.2168 437.346173C376.3746 436.470706 468.65226 313.11524 436.77359 201.4427C411.5365300000001 80.74846 257.02184 16.93778 153.95593 84.58317C46.209141 144.31105 30.579362 310.73869 125.69354 389.28474C162.06038 421.955493 211.37451 439.580041 260.2168 437.346173zM322.20274 182.15605C284.49461 137.47706 214.31596 151.52037 177.79546 179.19859L145.09177 150.63306C198.43914 88.6881199999999 309.00197 89.3897299999999 358.47805 151.40663z" />
    <glyph glyph-name="docs"
      unicode="&#xE00E;"
      horiz-adv-x="500" d=" M0 495.8717018L0 4.1283L346.77298 4.1283L346.77298 238.41872L456.01596 238.26525C443.5675 224.90198 434.6561700000001 218.15423 442.1005600000001 212.7323C448.3130500000001 208.20758 499.6938500000001 244.80145 500 252.34249C499.9489 261.12889 450.20934 294.97352 443.11066 290.10129C439.0101 284.4086200000001 444.65328 279.49739 457.13349 266.99732L346.77298 266.99732L346.77298 495.8717018L-1e-13 495.8717018zM44.791841 454.818911L301.98114 454.818911L301.98114 45.18248L44.791841 45.18248L44.791841 454.818911zM78.792061 385.9269500000001L78.792061 346.12842L269.61884 346.12842L269.61884 385.9269500000001L78.792061 385.9269500000001zM78.29399 272.28919L78.29399 232.4920400000001L269.12077 232.4920400000001L269.12077 272.28919L78.29399 272.28919zM79.241307 155.08119L79.241307 115.28266L270.06948 115.28266L270.06948 155.08119L79.241307 155.08119z" />
    <glyph glyph-name="facebook"
      unicode="&#xE00F;"
      horiz-adv-x="500" d=" M319.71749 499.93242781C287.08155 500.76391581 252.15904 494.1120088 228.87736 469.375227C206.42718 446.509292 197.28081 417.407198 197.69654 386.22638C197.07293 363.36045 197.69654 338.83154 197.07293 315.54987L120.16025 314.71837L120.16025 227.41209L197.48867 227.41209L197.48867 0L288.3288 0L288.3288 228.45145C313.89707 228.45145 339.46534 228.45145 364.82573 228.86718C368.56743 257.96929 373.1406100000001 287.48712 376.05083 317.0049600000001L287.91305 317.0049600000001C289.99176 343.1968500000001 285.83432 370.0123500000001 292.07049 395.9963700000001C302.0483500000001 424.4748470000001 338.42597 415.536352 361.91552 417.1993300000001C376.46656 413.6655060000001 381.8712500000001 419.278044 379.1689100000001 432.1661120000001L379.1689100000001 496.6064738000001C358.38169 498.6851958 337.59448 500.14029981 318.88599 499.93242781z" />
    <glyph glyph-name="instagram"
      unicode="&#xE010;"
      horiz-adv-x="500" d=" M151.84643 3.42744C94.327543 1.69723 32.700164 32.84115 14.8967 91.66855C-3.5915146 153.9564 4.62547 219.70468 2.913598 281.99253C3.5983468 344.2803800000001 -1.366081 418.679761 50.332445 463.66542C105.62589 512.111523 183.17368 496.5395623 249.93667 499.9999984178201C318.75392 496.8856063 399.55426 512.111523 454.67653 459.166854C507.40218 407.260313 495.24789 327.67029 497.47332 260.19179C493.36484 192.71329 508.77167 117.44881 469.22743 57.75629C431.5662600000001 0.65908 357.95578 -0.72509 296.32839 0.14003C250.10786 1.17815 200.46358 0.14003 154.24305 1.87024zM368.05583 48.41311C415.98824 51.5274899999999 451.93755 96.3401499999999 451.42396 144.09417C452.27991 220.5698 454.84771 297.56449 449.7121 374.21316C445.26123 421.794137 401.09494 454.495265 355.55915 453.803178C280.92156 456.571527 205.94158 458.474766 131.30397 452.419003C83.371562 450.16972 49.476508 405.7031110000001 48.620572 358.98723C47.251075 282.33858 44.340893 204.99784 50.332445 128.86825C54.440935 82.49839 95.183474 47.89404 140.37689 47.54799C213.13143 44.08756 285.88598 46.16382 358.81171 47.02894L367.88464 48.06706zM228.70947 124.5427C155.61255 134.57796 106.48183 216.76332 128.22259 287.18319C145.34132 358.98723 230.9349 399.64736 297.6979 369.71458C373.0202500000001 342.0311000000001 400.4102000000001 239.08313 352.4777900000001 176.44923C325.08785 137.51933 273.73169 116.58369 227.5111500000001 125.23478zM272.19101 171.2585800000001C327.99802 185.1003300000001 352.99136 262.2680400000001 312.9335500000001 305.3504800000001C276.9842500000001 353.4505300000001 196.86865 339.9548400000001 174.27195 285.7990200000001C146.88199 230.0859900000001 199.60765 158.4549700000001 259.8655300000001 169.3553400000001L271.8486200000001 169.3553400000001zM376.61518 356.39191C318.4115300000001 371.6178300000001 386.88641 453.976199 410.16786 394.11066C417.01535 373.34805 396.98645 351.37427 376.4439900000001 356.04586z" />
    <glyph glyph-name="kreski"
      unicode="&#xE011;"
      horiz-adv-x="500" d=" M206.606401159134 420.313601782322L206.606401159134 341.893011772502L472.2084138936 341.893011772502A418.688352 418.688352 0 0 0 497.684754013422 420.313601782322L206.606401159134 420.313601782322zM103.065530582172 289.2963168280339L103.065530582172 210.8757268182139L463.978099950204 210.8757268182139A412.702757151786 314.01626400000004 0 0 0 463.744698639312 218.673317627144A418.688352 418.688352 0 0 0 462.213119202348 252.255612527144A418.688352 418.688352 0 0 0 464.066687427348 289.2963168280339L103.065530582172 289.2963168280339zM-0.0000144482406 158.106959683748L-0.0000144482406 79.686369673928L500.000013373242 79.686369673928A418.688352 418.688352 0 0 0 473.464007925204 158.106959683748L-0.0000144482406 158.106959683748z" />
    <glyph glyph-name="left"
      unicode="&#xE012;"
      horiz-adv-x="500" d=" M10 500L14 504L0 500L14 496L10 500z M421.60341 500L78.39659 250L421.60341 0L421.60341 54.23958L421.60341 75.93653L184.11768 249.91683L421.60341 422.777083z" />
    <glyph glyph-name="printer"
      unicode="&#xE013;"
      horiz-adv-x="500" d=" M81.932162 493.1719595L81.932162 350.31523L0 350.31523L0 100.31523L79.831118 100.31523L79.831118 6.82804L420.16746 6.82804L420.16746 100.31523L500 100.31523L500 350.31523L422.2685 350.31523L422.2685 493.1719595L81.932162 493.1719595zM125.23984 467.417996L383.0465900000001 467.417996L383.0465900000001 350.06965L125.23984 350.06965L125.23984 467.417996zM121.64522 192.2471L378.35478 192.2471L378.35478 33.59303L121.64522 33.59303L121.64522 192.2471zM192.13006 130.03289L192.13006 100.0079L314.89258 100.0079L314.89258 130.03289L192.13006 130.03289z" />
    <glyph glyph-name="right"
      unicode="&#xE014;"
      horiz-adv-x="500" d=" M12.5 500L16.5 504L2.5 500L16.5 496L12.5 500z M78.396582 500L421.6034200000001 250L78.396582 0L78.396582 54.23958L78.396582 75.93652L315.88233 249.91683L78.396582 422.777075z" />
    <glyph glyph-name="twitter"
      unicode="&#xE015;"
      horiz-adv-x="500" d=" M130.28415 62.2345C88.704098 65.12383 47.817057 77.00219 10.395014 96.74594L0.000002 102.68511L17.325027 102.36408C57.172558 101.40097 95.287588 110.38997 128.20513 128.04698C140.33265 134.94929 150.72765 142.01209 150.72765 142.81468C150.72765 143.13571 148.99516 143.45676 145.53016 143.45676C138.60014 143.45676 126.47264 146.0250400000001 117.81011 149.55644C93.555108 158.38495 71.032578 177.96819 62.023568 200.28023C60.291078 204.29317 59.078308 207.66406 59.251558 207.82457C59.251558 207.82457 63.582818 207.82457 68.607088 207.18252C77.269578 207.18252 94.594608 208.78769 101.5246 210.39286C104.98962 211.99806 104.46986 211.99806 96.327098 213.60324C56.479558 224.8395 27.893292 258.54836 24.774779 297.07274C23.735287 305.09866 23.908538 306.70383 25.294535 305.09866C42.619543 298.67792 50.242568 297.07274 63.409578 295.46756L70.339578 295.46756L66.874568 297.87534C59.944568 302.6908699999999 47.817057 313.92716 42.966047 319.5452899999999C22.176022 346.8334 18.018018 383.75261 33.090789 412.6459019999999C38.288287 425.005792 41.233547 419.0666279999999 46.9508 411.843316C68.953568 388.72867 101.1781 365.7745499999999 132.70964 350.8463499999999C156.96466 339.2890399999999 179.48719 332.2262399999999 205.47471 326.76862C219.33472 324.6818599999999 247.05475 321.9530699999999 247.05475 322.7556599999999C248.2675 323.3977399999999 247.05475 325.96602 247.05475 329.1763899999999C241.51074 362.8852299999999 255.71728 396.59407 283.43728 417.4614429999999C326.74983 446.354739 378.37838 443.1443749999999 414.7609 415.8562589999999L423.42343 409.4355329999999L432.77893 411.0407049999999C458.76646 414.5721239999999 502.079 449.5651009999999 474.87874 407.8303489999999C469.68122 400.2859879999999 457.55369 389.21022 449.9307 383.7526099999999L443.00067 379.73965C443.00067 379.73965 448.19819 380.22121 453.3957 381.3448399999999C464.4837200000001 382.9500099999999 484.58075 388.24712 493.9362400000001 391.7785199999999L500 393.3837L493.06999 384.87623C484.40749 374.76359 470.54746 361.60108 458.41997 352.77256L448.0249500000001 344.74666L448.0249500000001 330.30003C448.0249500000001 269.30308 423.2501600000001 207.66406 378.7248800000001 157.58236C368.6763600000001 146.34608 347.5398500000001 127.08388 336.2785800000001 119.05798C309.07832 99.79577 269.23077 82.13876 232.3284900000001 74.11287C199.4109500000001 66.88954 168.22592 64.48176 133.92238 67.05005z" />
    <glyph glyph-name="youtube"
      unicode="&#xE016;"
      horiz-adv-x="500" d=" M198.38334 185.14723L198.36114 325.63055L333.4611300000001 255.14723L198.3833600000001 185.14723zM495.01111 349.96945C495.01111 349.96945 490.12222 384.425 475.12778 399.60278C456.12222 419.513885 434.80555 419.608335 425.03333 420.774995C355.06667 425.836105 250.11111 425.836105 250.11111 425.836105L249.88889 425.836105C249.88889 425.836105 144.9389 425.836105 74.966681 420.774995C65.194451 419.608335 43.888902 419.513885 24.872221 399.60278C9.8777715 384.425 4.9999985 349.96945 4.9999985 349.96945C4.9999985 349.96945 -0.0000015 309.50834 -0.0000015 269.04723L-0.0000015 231.10834C-0.0000015 190.65279 4.9999985 150.19168 4.9999985 150.19168C4.9999985 150.19168 9.8777715 115.73612 24.872221 100.5583400000001C43.888902 80.6416800000001 68.872231 81.2805700000001 80.000011 79.19168C120.00556 75.35279 250 74.1639 250 74.1639C250 74.1639 355.06667 74.32479 425.03333 79.38057C434.80555 80.54723 456.12222 80.64168 475.12778 100.5583400000001C490.12222 115.73612 495.01111 150.19168 495.01111 150.19168C495.01111 150.19168 500 190.6527900000001 500 231.10834L500 269.04723C500 309.50834 495.01111 349.96945 495.01111 349.96945" />
  </font>
</defs>
</svg>
