<?xml version="1.0" encoding="UTF-8" standalone="no"?>
<svg
   xmlns:dc="http://purl.org/dc/elements/1.1/"
   xmlns:cc="http://creativecommons.org/ns#"
   xmlns:rdf="http://www.w3.org/1999/02/22-rdf-syntax-ns#"
   xmlns:svg="http://www.w3.org/2000/svg"
   xmlns="http://www.w3.org/2000/svg"
   version="1.1"
   id="svg2"
   viewBox="0 0 900.24488 420.23548"
   height="118.59979mm"
   width="254.06911mm">
  <defs
     id="defs4" />
  <metadata
     id="metadata7">
    <rdf:RDF>
      <cc:Work
         rdf:about="">
        <dc:format>image/svg+xml</dc:format>
        <dc:type
           rdf:resource="http://purl.org/dc/dcmitype/StillImage" />
        <dc:title></dc:title>
      </cc:Work>
    </rdf:RDF>
  </metadata>
  <g
     transform="translate(385.12215,-262.96369)"
     id="layer1">
    <path
       id="path4702"
       d="m 313.80664,263.14844 c -49.48961,-2.07611 -98.12151,13.39897 -137.31055,43.69336 -91.766071,70.93776 -108.692178,202.81645 -37.81445,294.6289 70.87689,91.81292 202.74414,108.82645 294.60352,38.00977 91.85918,-70.81659 108.95923,-202.67236 38.20312,-294.57813 l -0.33984,-0.43945 C 433.24542,295.4974 375.6736,265.74421 313.80664,263.14844 Z m -25.91406,53.32812 0,164.1393 c -0.0927,30.64794 39.32661,31.06209 39.7539,0.25254 l 0,-164.16332 c 41.69115,5.59192 79.5071,27.36591 105.27344,60.61523 l 0.25977,0.33399 c 53.91857,70.03555 40.88718,170.51439 -29.11328,224.47851 -69.99994,53.9651 -170.48763,41.00014 -224.49805,-28.96484 -54.01034,-69.96399 -41.11187,-170.45907 28.81641,-224.51563 23.08319,-17.75647 50.57219,-28.88092 79.50781,-32.17578 z"
       style="opacity:1;fill:#c83737;fill-opacity:1;stroke:none;stroke-width:1;stroke-linecap:round;stroke-linejoin:round;stroke-miterlimit:4;stroke-dasharray:0, 1, 2, 3, 4, 5, 6, 7, 8, 9, 10, 11, 12, 13, 14;stroke-dashoffset:0;stroke-opacity:1" />
    <path
       id="path4702-0"
       d="m -166.19336,263.14844 c -49.48961,-2.07611 -98.12151,13.39897 -137.31055,43.69336 -91.76607,70.93776 -108.69218,202.81645 -37.81445,294.6289 70.87689,91.81292 202.74414,108.82645 294.60352,38.00977 C 45.14434,568.66388 62.24439,436.80811 -8.51172,344.90234 l -0.33984,-0.43945 c -37.90302,-48.96549 -95.47484,-78.71868 -157.3418,-81.31445 z m -25.91406,53.32812 0,164.1393 c -0.0927,30.64794 39.32661,31.06209 39.7539,0.25254 l 0,-164.16332 c 41.69115,5.59192 79.5071,27.36591 105.27344,60.61523 l 0.25977,0.33399 c 53.91857,70.03555 40.88718,170.51439 -29.11328,224.47851 -69.99994,53.9651 -170.48763,41.00014 -224.49805,-28.96484 -54.01034,-69.96399 -41.11187,-170.45907 28.81641,-224.51563 23.08319,-17.75647 50.57219,-28.88092 79.50781,-32.17578 z"
       style="opacity:1;fill:#c83737;fill-opacity:1;stroke:none;stroke-width:1;stroke-linecap:round;stroke-linejoin:round;stroke-miterlimit:4;stroke-dasharray:0, 1, 2, 3, 4, 5, 6, 7, 8, 9, 10, 11, 12, 13, 14;stroke-dashoffset:0;stroke-opacity:1" />
  </g>
</svg>
