<?xml version="1.0" encoding="UTF-8" standalone="no"?>
<svg
   xmlns:dc="http://purl.org/dc/elements/1.1/"
   xmlns:cc="http://creativecommons.org/ns#"
   xmlns:rdf="http://www.w3.org/1999/02/22-rdf-syntax-ns#"
   xmlns:svg="http://www.w3.org/2000/svg"
   xmlns="http://www.w3.org/2000/svg"
   xmlns:sodipodi="http://sodipodi.sourceforge.net/DTD/sodipodi-0.dtd"
   xmlns:inkscape="http://www.inkscape.org/namespaces/inkscape"
   version="1.1"
   id="svg2"
   viewBox="0 0 499.99998 499.99992"
   height="500"
   width="500"
   inkscape:version="0.91 r13725"
   sodipodi:docname="accessibility.svg">
  <sodipodi:namedview
     pagecolor="#ffffff"
     bordercolor="#666666"
     borderopacity="1"
     objecttolerance="10"
     gridtolerance="10"
     guidetolerance="10"
     inkscape:pageopacity="0"
     inkscape:pageshadow="2"
     inkscape:window-width="1920"
     inkscape:window-height="1029"
     id="namedview9"
     showgrid="false"
     inkscape:zoom="0.44769547"
     inkscape:cx="-754.27856"
     inkscape:cy="399.75627"
     inkscape:window-x="0"
     inkscape:window-y="25"
     inkscape:window-maximized="1"
     inkscape:current-layer="svg2"
     units="px"
     fit-margin-top="0"
     fit-margin-left="0"
     fit-margin-right="0"
     fit-margin-bottom="0" />
  <defs
     id="defs4" />
  <metadata
     id="metadata7">
    <rdf:RDF>
      <cc:Work
         rdf:about="">
        <dc:format>image/svg+xml</dc:format>
        <dc:type
           rdf:resource="http://purl.org/dc/dcmitype/StillImage" />
        <dc:title></dc:title>
      </cc:Work>
    </rdf:RDF>
  </metadata>
  <path
     style="opacity:1;fill:#000000;fill-opacity:1;stroke:none;stroke-width:15;stroke-linecap:round;stroke-linejoin:round;stroke-miterlimit:4;stroke-dasharray:none;stroke-dashoffset:0;stroke-opacity:1"
     d="m 93.264194,80.340055 c -0.332814,0.005 -0.662925,0.13126 -0.913874,0.37516 L 0.36846169,170.10654 c -0.50190723,0.48778 -0.4897362,1.25952 0.0284476,1.72998 l 39.92447071,36.24761 0,60.64502 -0.03378,0 -0.224025,107.67605 c 1.159316,9.37107 5.809218,16.1873 13.54285,16.33428 7.549491,-0.068 13.551757,-3.90202 14.723426,-14.98302 l 0,-103.65604 c 10.308856,-8.41765 11.991981,-6.57425 19.60575,-0.16891 l 0.154684,126.50483 c 0.46239,13.17922 10.772177,15.04968 15.704865,15.03101 7.04364,-1.263 11.91125,-3.35686 13.17836,-16.49607 0,0 0.28649,-96.25925 0.52629,-124.87086 8.75698,-8.1501 13.11347,-5.05709 20.97479,0.67562 l 0.23825,123.55162 c 1.56103,7.19687 8.3305,11.41533 15.48262,11.38261 5.42129,-0.35059 12.3741,-4.11509 13.33661,-13.25482 l 0,-120.92021 c 1.17888,0.36328 3.73375,0.14935 3.73375,0.14935 36.06964,0.60605 71.3851,-18.07499 79.19464,-43.56399 1.09131,-7.31433 -3.62429,-11.3048 -9.75754,-11.01634 -6.13325,0.28846 -14.19127,4.65041 -17.71576,10.0829 -6.84499,10.83899 -23.82037,15.29781 -36.64055,15.08436 -19.06927,-0.34375 -34.70144,-15.22338 -35.98269,-34.24739 -1.28105,-19.02373 12.21584,-35.86171 31.06659,-38.75811 2.42223,-0.37218 4.87557,-0.5004 7.32349,-0.38405 11.3576,0.54756 25.10189,5.93057 31.61598,15.24793 3.74934,4.76564 9.99535,8.64988 14.94212,9.94245 5.58019,2.3739 14.16881,-0.30197 12.79432,-10.02424 -5.60432,-19.16957 -17.42887,-33.74085 -35.82623,-41.38063 -15.14408,-6.24137 -32.02456,-6.8384 -47.57156,-1.68197 -0.0536,-0.22498 -0.1742,-0.43886 -0.36448,-0.61162 L 94.192297,80.683205 c -0.259087,-0.23523 -0.595279,-0.3488 -0.928103,-0.34315 z m 302.940586,4.19247 c -7.04364,1.26301 -11.91125,3.35686 -13.17837,16.496065 0,0 -0.28648,96.26103 -0.52627,124.87265 -8.75699,8.1501 -13.11349,5.05708 -20.9748,-0.67563 L 361.28709,101.674 c -1.56103,-7.196875 -8.33049,-11.417095 -15.48262,-11.384385 -5.42128,0.3506 -12.3741,4.11508 -13.3366,13.254815 l 0,120.92021 c -1.17888,-0.36327 -3.73375,-0.14757 -3.73375,-0.14757 -36.06965,-0.60605 -71.38513,18.07498 -79.19465,43.56398 -1.09132,7.31434 3.62429,11.30481 9.75753,11.01635 6.13325,-0.28847 14.19127,-4.65219 17.71577,-10.08469 6.845,-10.83898 23.82036,-15.29603 36.64054,-15.08258 19.06928,0.34375 34.70144,15.2216 35.9827,34.24561 1.28105,19.02374 -12.21584,35.8635 -31.06659,38.7599 -2.42223,0.37218 -4.87558,0.50039 -7.32349,0.38404 -11.3576,-0.54756 -25.10188,-5.93057 -31.61598,-15.24793 -3.74934,-4.76565 -9.99533,-8.65165 -14.94212,-9.94422 -5.58017,-2.37389 -14.1688,0.30374 -12.79432,10.02601 5.60433,19.16957 17.42887,33.73908 35.82623,41.37886 15.14408,6.24137 32.02455,6.83839 47.57155,1.68196 0.0536,0.22499 0.1742,0.43887 0.36448,0.61163 l 70.15186,63.69068 c 0.2591,0.23523 0.59528,0.3488 0.9281,0.34315 0.33282,-0.005 0.66293,-0.12948 0.91389,-0.37337 l 91.98185,-89.39312 c 0.50191,-0.48778 0.48974,-1.25952 -0.0284,-1.72997 l -39.92447,-36.24584 0,-60.64679 0.0338,0 0.22403,-107.67428 c -1.15932,-9.37106 -5.80922,-16.18729 -13.54285,-16.33427 -7.54949,0.068 -13.55176,3.90023 -14.72343,14.98123 l 0,103.65783 c -10.30886,8.41765 -11.99198,6.57425 -19.60575,0.16891 L 411.90968,99.565325 c -0.46239,-13.17922 -10.77217,-15.05146 -15.70487,-15.0328 z"
     id="rect4209"
     inkscape:connector-curvature="0" />
</svg>
