<?xml version="1.0" encoding="UTF-8" standalone="no"?>
<svg
   xmlns:dc="http://purl.org/dc/elements/1.1/"
   xmlns:cc="http://creativecommons.org/ns#"
   xmlns:rdf="http://www.w3.org/1999/02/22-rdf-syntax-ns#"
   xmlns:svg="http://www.w3.org/2000/svg"
   xmlns="http://www.w3.org/2000/svg"
   xmlns:sodipodi="http://sodipodi.sourceforge.net/DTD/sodipodi-0.dtd"
   xmlns:inkscape="http://www.inkscape.org/namespaces/inkscape"
   version="1.1"
   id="svg2"
   viewBox="0 0 549.25401 372.74707"
   height="372.74713"
   width="549.25403"
   inkscape:version="0.91 r13725"
   sodipodi:docname="accessibility.svg">
  <sodipodi:namedview
     pagecolor="#ffffff"
     bordercolor="#666666"
     borderopacity="1"
     objecttolerance="10"
     gridtolerance="10"
     guidetolerance="10"
     inkscape:pageopacity="0"
     inkscape:pageshadow="2"
     inkscape:window-width="1920"
     inkscape:window-height="1029"
     id="namedview9"
     showgrid="false"
     inkscape:zoom="0.44769547"
     inkscape:cx="-138.9049"
     inkscape:cy="399.75627"
     inkscape:window-x="0"
     inkscape:window-y="25"
     inkscape:window-maximized="1"
     inkscape:current-layer="svg2"
     units="px"
     fit-margin-top="0"
     fit-margin-left="0"
     fit-margin-right="0"
     fit-margin-bottom="0" />
  <defs
     id="defs4" />
  <metadata
     id="metadata7">
    <rdf:RDF>
      <cc:Work
         rdf:about="">
        <dc:format>image/svg+xml</dc:format>
        <dc:type
           rdf:resource="http://purl.org/dc/dcmitype/StillImage" />
        <dc:title></dc:title>
      </cc:Work>
    </rdf:RDF>
  </metadata>
  <path
     style="opacity:1;fill:#000000;fill-opacity:1;stroke:none;stroke-width:15;stroke-linecap:round;stroke-linejoin:round;stroke-miterlimit:4;stroke-dasharray:none;stroke-dashoffset:0;stroke-opacity:1"
     d="M 102.45117 0 C 102.08557 0.0060000014 101.72294 0.14418938 101.44727 0.41210938 L 0.40429688 98.609375 C -0.14705313 99.145205 -0.13368313 99.992965 0.43554688 100.50977 L 44.292969 140.32812 L 44.292969 206.94727 L 44.255859 206.94727 L 44.009766 325.23047 C 45.283286 335.52468 50.391249 343.01237 58.886719 343.17383 C 67.179909 343.09913 73.773457 338.88743 75.060547 326.71484 L 75.060547 212.84766 C 86.384927 203.60079 88.233856 205.62578 96.597656 212.66211 L 96.767578 351.62891 C 97.275518 366.10641 108.60092 368.16113 114.01953 368.14062 C 121.75704 366.7532 127.10416 364.45308 128.49609 350.01953 C 128.49609 350.01953 128.8108 244.2778 129.07422 212.84766 C 138.69385 203.8947 143.4795 207.2924 152.11523 213.58984 L 152.37695 349.3125 C 154.09176 357.21834 161.52809 361.85235 169.38477 361.81641 C 175.3401 361.43128 182.97784 357.29595 184.03516 347.25586 L 184.03516 214.42383 C 185.33017 214.82289 188.13672 214.58789 188.13672 214.58789 C 227.75958 215.25364 266.55396 194.73233 275.13281 166.73242 C 276.33163 158.69755 271.15149 154.31398 264.41406 154.63086 C 257.67662 154.94774 248.82481 159.73938 244.95312 165.70703 C 237.43383 177.61376 218.78621 182.51182 204.70312 182.27734 C 183.75534 181.89973 166.58325 165.55431 165.17578 144.65625 C 163.76853 123.75849 178.595 105.26181 199.30273 102.08008 C 201.96358 101.67124 204.6586 101.53039 207.34766 101.6582 C 219.8241 102.2597 234.92233 108.17299 242.07812 118.4082 C 246.19681 123.64331 253.05811 127.91018 258.49219 129.33008 C 264.62208 131.93783 274.05677 128.99837 272.54688 118.31836 C 266.39047 97.260398 253.40109 81.253698 233.19141 72.861328 C 216.55549 66.005118 198.01212 65.349282 180.93359 71.013672 C 180.87469 70.766522 180.74222 70.531577 180.5332 70.341797 L 103.4707 0.37695312 C 103.18609 0.11855312 102.81678 -0.0062099986 102.45117 0 z M 435.23438 4.6054688 C 427.49687 5.9928887 422.14975 8.2930129 420.75781 22.726562 C 420.75781 22.726562 420.44311 128.47025 420.17969 159.90039 C 410.56006 168.85335 405.7744 165.45564 397.13867 159.1582 L 396.87695 23.435547 C 395.16214 15.529707 387.72583 10.893748 379.86914 10.929688 C 373.91381 11.314818 366.27607 15.450144 365.21875 25.490234 L 365.21875 158.32227 C 363.92374 157.92321 361.11719 158.16016 361.11719 158.16016 C 321.49433 157.49441 282.69993 178.01571 274.12109 206.01562 C 272.92227 214.0505 278.10241 218.43407 284.83984 218.11719 C 291.57727 217.80031 300.42909 213.00671 304.30078 207.03906 C 311.82008 195.13233 330.46768 190.23622 344.55078 190.4707 C 365.49857 190.84831 382.67065 207.19178 384.07812 228.08984 C 385.48537 248.9876 370.65891 267.48624 349.95117 270.66797 C 347.29033 271.07681 344.5953 271.21765 341.90625 271.08984 C 329.42981 270.48834 314.33159 264.57505 307.17578 254.33984 C 303.0571 249.10473 296.19581 244.83592 290.76172 243.41602 C 284.63184 240.80827 275.19715 243.74968 276.70703 254.42969 C 282.86344 275.48765 295.85282 291.4924 316.0625 299.88477 C 332.69842 306.74098 351.24178 307.39681 368.32031 301.73242 C 368.37921 301.97957 368.51167 302.21452 368.7207 302.4043 L 445.7832 372.36914 C 446.06782 372.62754 446.43712 372.7523 446.80273 372.74609 C 447.16833 372.74009 447.53096 372.60386 447.80664 372.33594 L 548.84961 274.13672 C 549.40096 273.60089 549.38759 272.75313 548.81836 272.23633 L 504.96094 232.41992 L 504.96094 165.79883 L 504.99805 165.79883 L 505.24414 47.517578 C 503.97062 37.223368 498.86266 29.735679 490.36719 29.574219 C 482.074 29.648919 475.48045 33.85866 474.19336 46.03125 L 474.19336 159.90039 C 462.86898 169.14726 461.02005 167.12227 452.65625 160.08594 L 452.48633 21.119141 C 451.97839 6.641641 440.65299 4.5849688 435.23438 4.6054688 z "
     transform="translate(0,-3.0517578e-5)"
     id="rect4209" />
</svg>
