<?xml version="1.0" encoding="UTF-8" standalone="no"?>
<svg
   xmlns:dc="http://purl.org/dc/elements/1.1/"
   xmlns:cc="http://creativecommons.org/ns#"
   xmlns:rdf="http://www.w3.org/1999/02/22-rdf-syntax-ns#"
   xmlns:svg="http://www.w3.org/2000/svg"
   xmlns="http://www.w3.org/2000/svg"
   xmlns:sodipodi="http://sodipodi.sourceforge.net/DTD/sodipodi-0.dtd"
   xmlns:inkscape="http://www.inkscape.org/namespaces/inkscape"
   viewBox="0 0 499.99999 491.99999"
   id="svg2"
   version="1.1"
   inkscape:version="0.91 r13725"
   sodipodi:docname="circle-twitter.svg"
   width="500"
   height="492">
  <metadata
     id="metadata12">
    <rdf:RDF>
      <cc:Work
         rdf:about="">
        <dc:format>image/svg+xml</dc:format>
        <dc:type
           rdf:resource="http://purl.org/dc/dcmitype/StillImage" />
        <dc:title></dc:title>
      </cc:Work>
    </rdf:RDF>
  </metadata>
  <defs
     id="defs10" />
  <sodipodi:namedview
     pagecolor="#ffffff"
     bordercolor="#666666"
     borderopacity="1"
     objecttolerance="10"
     gridtolerance="10"
     guidetolerance="10"
     inkscape:pageopacity="0"
     inkscape:pageshadow="2"
     inkscape:window-width="1920"
     inkscape:window-height="1029"
     id="namedview8"
     showgrid="false"
     inkscape:zoom="0.48094558"
     inkscape:cx="-39.095131"
     inkscape:cy="245.35001"
     inkscape:window-x="0"
     inkscape:window-y="25"
     inkscape:window-maximized="1"
     inkscape:current-layer="svg2" />
  <path
     d="m 180.9,362.97453 c -24,-1.8 -47.6,-9.2 -69.2,-21.5 l -6,-3.7 10,0.2 c 23,0.6 45,-5 64,-16 7,-4.3 13,-8.7 13,-9.2 0,-0.2 -1,-0.4 -3,-0.4 -4,0 -11,-1.6 -16,-3.8 -14,-5.5 -27,-17.7 -32.2,-31.6 -1,-2.5 -1.7,-4.6 -1.6,-4.7 0,0 2.5,0 5.4,0.4 5,0 15,-1 19,-2 2,-1 1.7,-1 -3,-2 -23,-7 -39.5,-28 -41.3,-52 -0.6,-5 -0.5,-6 0.3,-5 10,4 14.4,5 22,6 l 4,0 -2,-1.5 c -4,-3 -11,-10 -13.8,-13.5 -12,-17 -14.4,-40 -5.7,-58 3,-7.7 4.7,-4 8,0.5 12.7,14.4 31.3,28.7 49.5,38 14,7.2 27,11.6 42,15 8,1.3 24,3 24,2.5 0.7,-0.4 0,-2 0,-4 -3.2,-21 5,-42 21,-55 25,-18 54.8,-16 75.8,1 l 5,4 5.4,-1 c 15,-2.2 40,-24 24.3,2 -3,4.7 -10,11.6 -14.4,15 l -4,2.5 c 0,0 3,-0.3 6,-1 6.4,-1 18,-4.3 23.4,-6.5 l 3.5,-1 -4,5.3 c -5,6.3 -13,14.5 -20,20 l -6,5 0,9 c 0,38 -14.3,76.4 -40,107.6 -5.8,7 -18,19 -24.5,24 -15.7,12 -38.7,23 -60,28 -19,4.5 -37,6 -56.8,4.4 z"
     id="path4"
     inkscape:connector-curvature="0" />
  <path
     d="M 250,-4 C 114.8,-4 4.7,108.08478 4.7,245.94905 4.7,383.81333 114.7,496 250,496 385.2,496 495.3,383.91522 495.3,246.05095 495.3,108.18667 385.2,-4 250.2,-4 Z m 0,46.36234 c 110.6,0 199.8,90.89057 199.8,203.58671 0,112.79805 -89.2,203.79051 -199.8,203.79051 -110.6,0 -199.8,-90.99246 -199.8,-203.79051 C 50.2,133.15101 139.4,42.158549 250,42.158549 Z"
     id="path6"
     inkscape:connector-curvature="0" />
</svg>
