
<svg xmlns="http://www.w3.org/2000/svg" viewBox="0 0 493.6 490.7">
  <path d="M204 343.5c-22-1-44.2-.4-66-4.3-13-3.3-23.5-14-26.4-27.2-6.8-30.4-4.6-62-4.6-92.8 1-18.3 1-38.2 10.8-54.3 8.2-12 23-16 36.4-16 58.7-3 117.5-3 176-1 15.3 1 33.4.3 43.8 13.6 12.6 17.2 11.5 39.7 12.7 60 0 29.6 2 59.6-4.4 88.7-3 16-17.4 29-34 29.5-48 4-96.2 3-144.2 2.7zm66-88.5c5.8-4.5 23.3-9 21.3-13.7-24.2-13-48.7-25.6-73-38.4v78l51.8-27z"/>
  <path d="M246.8 0C111.6 0 1.5 110 1.5 245.4c0 135.2 110 245.3 245.3 245.3 135.2 0 245.3-110 245.3-245.3S382 0 247 0zm0 45.5c110.6 0 199.8 89.2 199.8 200C446.6 356 357.4 445 246.8 445 136.2 445.2 47 356 47 245.4c0-110.7 89.2-200 199.8-200z"/>
</svg>

