<?xml version="1.0" encoding="UTF-8" standalone="no"?>
<svg
   xmlns:dc="http://purl.org/dc/elements/1.1/"
   xmlns:cc="http://creativecommons.org/ns#"
   xmlns:rdf="http://www.w3.org/1999/02/22-rdf-syntax-ns#"
   xmlns:svg="http://www.w3.org/2000/svg"
   xmlns="http://www.w3.org/2000/svg"
   xmlns:sodipodi="http://sodipodi.sourceforge.net/DTD/sodipodi-0.dtd"
   xmlns:inkscape="http://www.inkscape.org/namespaces/inkscape"
   viewBox="0 0 499.99999 499.99999"
   id="svg2"
   version="1.1"
   inkscape:version="0.91 r13725"
   sodipodi:docname="circle-instagram.svg"
   width="500"
   height="500">
  <metadata
     id="metadata12">
    <rdf:RDF>
      <cc:Work
         rdf:about="">
        <dc:format>image/svg+xml</dc:format>
        <dc:type
           rdf:resource="http://purl.org/dc/dcmitype/StillImage" />
        <dc:title></dc:title>
      </cc:Work>
    </rdf:RDF>
  </metadata>
  <defs
     id="defs10" />
  <sodipodi:namedview
     pagecolor="#ffffff"
     bordercolor="#666666"
     borderopacity="1"
     objecttolerance="10"
     gridtolerance="10"
     guidetolerance="10"
     inkscape:pageopacity="0"
     inkscape:pageshadow="2"
     inkscape:window-width="1920"
     inkscape:window-height="1029"
     id="namedview8"
     showgrid="false"
     inkscape:zoom="0.48094558"
     inkscape:cx="-326.02988"
     inkscape:cy="245.35001"
     inkscape:window-x="0"
     inkscape:window-y="25"
     inkscape:window-maximized="1"
     inkscape:current-layer="svg2" />
  <path
     d="m 189.7,396.37252 c -33.6,1.01895 -69.6,-17.32219 -80,-51.96658 -10.8,-36.68229 -6,-75.40248 -7,-112.08477 0.4,-36.68229 -2.5,-80.49725 27.7,-106.99002 32.3,-28.530676 77.6,-19.36009 116.6,-21.398 40.2,1.83412 87.4,-7.132676 119.6,24.04728 30.8,30.56858 23.7,77.44039 25,117.17954 -2.4,39.73915 6.6,84.06358 -16.5,119.21744 -22,33.62543 -65,34.4406 -101,33.93112 -27,-0.61137 -56,0 -83,-1.01895 z M 316,369.87976 c 28,-1.83412 49,-28.22499 48.7,-56.34808 0.5,-45.0377 2,-90.38109 -1,-135.52068 -2.6,-28.02119 -28.4,-47.2794 -55,-46.87182 -43.6,-1.63032 -87.4,-2.75117 -131,0.81517 -28,1.32463 -47.8,27.51171 -48.3,55.02343 -0.8,45.1396 -2.5,90.68677 1,135.52068 2.4,27.30793 26.2,47.68698 52.6,47.89077 42.5,2.03791 85,0.81516 127.6,0.30569 l 5.3,-0.61137 z m -81.4,-44.83391 c -42.7,-5.90993 -71.4,-54.31017 -58.7,-95.78154 10,-42.28653 60,-66.23191 99,-48.60403 44,16.30324 60,76.93091 32,113.81699 -16,22.92643 -46,35.25576 -73,30.16099 z M 260,297.53413 c 32.6,-8.15162 47.2,-53.5969 23.8,-78.96882 -21,-28.32688 -67.8,-20.37905 -81,11.51416 -16,32.81027 14.8,74.99491 50,68.57551 l 7,0 z m 61,-109.02792 c -34,-8.96678 6,-57.46892 19.6,-22.21316 4,12.22743 -7.7,25.16812 -19.7,22.41695 z"
     id="path4"
     inkscape:connector-curvature="0" />
  <path
     d="M 250,0 C 114.8,0 4.7,112.08478 4.7,249.94906 4.7,387.81333 114.7,500 250,500 385.2,500 495.3,387.91522 495.3,250.05095 495.3,112.18668 385.2,0 250.2,0 Z m 0,46.36234 c 110.6,0 199.8,90.89057 199.8,203.58672 0,112.79804 -89.2,203.7905 -199.8,203.7905 -110.6,0 -199.8,-90.99246 -199.8,-203.7905 C 50.2,137.15101 139.4,46.158549 250,46.158549 Z"
     id="path6"
     inkscape:connector-curvature="0" />
</svg>
