<?xml version="1.0" encoding="UTF-8" standalone="no"?>
<svg
   xmlns:dc="http://purl.org/dc/elements/1.1/"
   xmlns:cc="http://creativecommons.org/ns#"
   xmlns:rdf="http://www.w3.org/1999/02/22-rdf-syntax-ns#"
   xmlns:svg="http://www.w3.org/2000/svg"
   xmlns="http://www.w3.org/2000/svg"
   xmlns:sodipodi="http://sodipodi.sourceforge.net/DTD/sodipodi-0.dtd"
   xmlns:inkscape="http://www.inkscape.org/namespaces/inkscape"
   viewBox="0 0 499.99999 499.99999"
   id="svg2"
   version="1.1"
   inkscape:version="0.91 r13725"
   sodipodi:docname="circle-youtube.svg"
   width="5.5555553in"
   height="5.5555553in">
  <metadata
     id="metadata12">
    <rdf:RDF>
      <cc:Work
         rdf:about="">
        <dc:format>image/svg+xml</dc:format>
        <dc:type
           rdf:resource="http://purl.org/dc/dcmitype/StillImage" />
        <dc:title></dc:title>
      </cc:Work>
    </rdf:RDF>
  </metadata>
  <defs
     id="defs10" />
  <sodipodi:namedview
     pagecolor="#ffffff"
     bordercolor="#666666"
     borderopacity="1"
     objecttolerance="10"
     gridtolerance="10"
     guidetolerance="10"
     inkscape:pageopacity="0"
     inkscape:pageshadow="2"
     inkscape:window-width="1920"
     inkscape:window-height="1029"
     id="namedview8"
     showgrid="false"
     units="ft"
     inkscape:zoom="0.48094558"
     inkscape:cx="-39.095131"
     inkscape:cy="245.35001"
     inkscape:window-x="0"
     inkscape:window-y="25"
     inkscape:window-maximized="1"
     inkscape:current-layer="svg2" />
  <path
     d="m 206.36014,350.01018 c -22.41695,-1.01895 -45.0377,-0.40758 -67.25086,-4.3815 -13.24638,-3.36254 -23.94539,-14.26533 -26.90035,-27.7155 -6.92888,-30.97616 -4.68718,-63.17506 -4.68718,-94.5588 1.01895,-18.64683 1.01895,-38.92398 11.00469,-55.32912 8.35541,-12.22743 23.4359,-16.30324 37.08987,-16.30324 59.81251,-3.05686 119.72692,-3.05686 179.33564,-1.01895 15.58997,1.01895 34.03301,0.30568 44.63012,13.85775 12.8388,17.52599 11.71795,40.45242 12.9407,61.13715 0,30.161 2.0379,60.72957 -4.48339,90.38109 -3.05686,16.30324 -17.72978,29.54962 -34.64439,30.0591 -48.90972,4.07581 -98.02323,3.05686 -146.93295,2.75117 z m 67.25087,-90.1773 c 5.90992,-4.58528 23.74159,-9.17057 21.70369,-13.95965 -24.65865,-13.24638 -49.62299,-26.08518 -74.38354,-39.12777 l 0,79.47829 52.78174,-27.51171 z"
     id="path4"
     inkscape:connector-curvature="0" />
  <path
     d="M 251.44905,-1e-5 C 113.68667,-1e-5 1.5,112.08477 1.5,250.05094 c 0,137.76238 112.08478,249.94905 249.94905,249.94905 137.76238,0 249.94905,-112.08478 249.94905,-249.94905 C 501.3981,112.18666 389.21143,-1e-5 251.65284,-1e-5 Z m 0,46.36234 c 112.69615,0 203.58671,90.89057 203.58671,203.7905 0,112.59426 -90.89056,203.28103 -203.58671,203.28103 C 138.7529,453.63765 47.862339,362.74709 47.862339,250.05094 47.862339,137.2529 138.7529,46.260434 251.44905,46.260434 Z"
     id="path6"
     inkscape:connector-curvature="0" />
</svg>
