<svg xmlns="http://www.w3.org/2000/svg" viewBox="0 0 493.6 490.7">
  <path d="M189.7 389c-33.6 1-69.6-17-80-51-10.8-36-6-74-7-110 .4-36-2.5-79 27.7-105 32.3-28 77.6-19 116.6-21 40.2 1.8 87.4-7 119.6 23.6 30.8 30 23.7 76 25 115-2.4 39 6.6 82.5-16.5 117-22 33-65 33.8-101 33.3-27-.6-56 0-83-1zM316 363c28-1.8 49-27.7 48.7-55.3.5-44.2 2-88.7-1-133-2.6-27.5-28.4-46.4-55-46-43.6-1.6-87.4-2.7-131 .8-28 1.3-47.8 27-48.3 54-.8 44.3-2.5 89 1 133 2.4 26.8 26.2 46.8 52.6 47 42.5 2 85 .8 127.6.3l5.3-.6zm-81.4-44c-42.7-5.8-71.4-53.3-58.7-94 10-41.5 60-65 99-47.7 44 16 60 75.5 32 111.7-16 22.5-46 34.6-73 29.6zm25.4-27c32.6-8 47.2-52.6 23.8-77.5-21-27.8-67.8-20-81 11.3-16 32.2 14.8 73.6 50 67.3h7zm61-107c-34-8.8 6-56.4 19.6-21.8 4 12-7.7 24.7-19.7 22z" />
  <path d="M246.8 0C111.6 0 1.5 110 1.5 245.3s110 245.4 245.3 245.4c135.2 0 245.3-110 245.3-245.3S382 0 247 0zm0 45.5c110.6 0 199.8 89.2 199.8 199.8 0 110.7-89.2 200-199.8 200C136.2 445.3 47 356 47 245.3s89.2-200 199.8-200z" />
</svg>

