<svg xmlns="http://www.w3.org/2000/svg" viewBox="0 0 493.6 490.7">
  <path d="M280.3 125.4c-15.7-.4-32.5 2.8-43.7 14.7-10.8 11-15.2 25-15 40-.3 11 0 22.8-.3 34l-37 .4v42h37.2v109.4h43.7V256c12.3 0 24.6 0 36.8-.2 1.8-14 4-28.2 5.4-42.4H265c1-12.6-1-25.5 2-38 4.8-13.7 22.3-9.4 33.6-10.2 7 1.7 9.6-1 8.3-7.2v-31c-10-1-20-1.7-29-1.6z"/>
  <path d="M245.3 0C110 0 0 110 0 245.3s110 245.4 245.3 245.4 245.4-110 245.4-245.4C490.7 110 380.7 0 245.3 0zm0 45.5c110.7 0 200 89.2 200 199.8 0 110.7-89.3 200-200 200-110.6 0-199.8-89.3-199.8-200 0-110.6 89.2-199.8 199.8-199.8z"/>
</svg>
