<svg xmlns="http://www.w3.org/2000/svg" viewBox="0 0 500 500">
  <path d="M251.4 0C113.7 0 1.4 112 1.4 250c0 137.8 112.2 250 250 250s250-112 250-250c0-137.8-112.2-250-249.7-250h-.3zm0 46.3c112.7 0 203.6 91 203.6 204 0 112.4-91 203-203.6 203C138.8 453.7 48 362.8 48 250c0-112.7 90.8-203.7 203.4-203.7zM257 149c-33.8 0-67.4.6-101.2 2.3-13.5 0-28.6 4-37 16.4-10 16.4-10 36.7-11 55.4 0 31.5-2.3 64 4.7 95 3 13.5 13.6 24.4 26.6 27.7 22.5 4 45 3.4 67.5 4.4l.4-1.2c49 .2 98 1.2 147-3 17-.4 31.4-13.6 34.4-30 6.7-29.7 4.7-60.2 4.7-90.4-1.3-20.7-.2-43.6-13-61-10.6-13.7-29-13-44.6-14-26-1-52.3-1.4-78.4-1.4zm-36 57.8c24.7 13 49.7 25.8 74.3 39 2 5-15.7 9.4-21.7 14l-.2-1.3L221 286v-79.2z"/>
</svg>
