<svg xmlns="http://www.w3.org/2000/svg" viewBox="0 0 493.6 490.7">
  <path d="M179.3 361.2c-24-1.8-47.6-9.2-69.2-21.5l-6-3.7 10 .2c23 .6 45-5 64-16 7-4.3 13-8.7 13-9.2 0-.2-1-.4-3-.4-4 0-11-1.6-16-3.8-14-5.5-27-17.7-32.2-31.6-1-2.5-1.7-4.6-1.6-4.7 0 0 2.5 0 5.4.4 5 0 15-1 19-2 2-1 1.7-1-3-2-23-7-39.5-28-41.3-52-.6-5-.5-6 .3-5 10 4 14.4 5 22 6h4l-2-1.5c-4-3-11-10-13.8-13.5-12-17-14.4-40-5.7-58 3-7.7 4.7-4 8 .5 12.7 14.4 31.3 28.7 49.5 38 14 7.2 27 11.6 42 15 8 1.3 24 3 24 2.5.7-.4 0-2 0-4-3.2-21 5-42 21-55 25-18 54.8-16 75.8 1l5 4 5.4-1c15-2.2 40-24 24.3 2-3 4.7-10 11.6-14.4 15l-4 2.5s3-.3 6-1c6.4-1 18-4.3 23.4-6.5l3.5-1-4 5.3c-5 6.3-13 14.5-20 20l-6 5v9c0 38-14.3 76.4-40 107.6-5.8 7-18 19-24.5 24-15.7 12-38.7 23-60 28-19 4.5-37 6-56.8 4.4z"/>
  <path d="M246.8 0C111.6 0 1.5 110 1.5 245.3s110 245.4 245.3 245.4c135.2 0 245.3-110 245.3-245.3S382 0 247 0zm0 45.5c110.6 0 199.8 89.2 199.8 199.8 0 110.7-89.2 200-199.8 200C136.2 445.3 47 356 47 245.3s89.2-200 199.8-200z"/>
</svg>

