<?xml version="1.0" encoding="UTF-8" standalone="no"?>
<svg
   xmlns:dc="http://purl.org/dc/elements/1.1/"
   xmlns:cc="http://creativecommons.org/ns#"
   xmlns:rdf="http://www.w3.org/1999/02/22-rdf-syntax-ns#"
   xmlns:svg="http://www.w3.org/2000/svg"
   xmlns="http://www.w3.org/2000/svg"
   xmlns:sodipodi="http://sodipodi.sourceforge.net/DTD/sodipodi-0.dtd"
   xmlns:inkscape="http://www.inkscape.org/namespaces/inkscape"
   width="500"
   height="500"
   viewBox="0 0 500 500.00001"
   id="svg2"
   version="1.1"
   inkscape:version="0.91 r13725"
   sodipodi:docname="clock-1h.svg">
  <sodipodi:namedview
     pagecolor="#ffffff"
     bordercolor="#666666"
     borderopacity="1"
     objecttolerance="10"
     gridtolerance="10"
     guidetolerance="10"
     inkscape:pageopacity="0"
     inkscape:pageshadow="2"
     inkscape:window-width="1920"
     inkscape:window-height="1029"
     id="namedview6"
     showgrid="false"
     inkscape:zoom="0.56158991"
     inkscape:cx="-34.718147"
     inkscape:cy="210.11774"
     inkscape:window-x="0"
     inkscape:window-y="25"
     inkscape:window-maximized="1"
     inkscape:current-layer="svg2" />
  <defs
     id="defs4" />
  <metadata
     id="metadata7">
    <rdf:RDF>
      <cc:Work
         rdf:about="">
        <dc:format>image/svg+xml</dc:format>
        <dc:type
           rdf:resource="http://purl.org/dc/dcmitype/StillImage" />
        <dc:title></dc:title>
      </cc:Work>
    </rdf:RDF>
  </metadata>
  <path
     id="path4702"
     d="M 260.47765,0.22540676 C 201.59577,-2.2447127 143.73439,16.167267 97.107957,52.211008 -12.07371,136.61151 -32.212096,293.51847 52.116986,402.75531 136.44507,511.99272 293.33841,532.23513 402.6311,447.97867 511.92355,363.72234 532.26889,206.84264 448.0845,97.494773 l -0.40433,-0.52285 C 402.58382,38.713639 334.08587,3.3138085 260.47765,0.22540676 Z m -30.8321,63.44887024 0,195.290063 c -0.11029,36.46438 46.79011,36.95713 47.2985,0.30047 l 0,-195.318644 c 49.6034,6.653168 94.59615,32.559481 125.2525,72.118944 l 0.30906,0.39737 c 64.15138,83.32707 48.64686,202.87504 -34.63846,267.08061 C 284.58244,467.74982 165.02394,452.32434 100.76329,369.08123 36.502732,285.83929 51.849106,166.272 135.04855,101.95645 c 27.46398,-21.12633 60.16991,-34.362006 94.597,-38.282173 z"
     style="opacity:1;fill:#c83737;fill-opacity:1;stroke:none;stroke-width:1;stroke-linecap:round;stroke-linejoin:round;stroke-miterlimit:4;stroke-dasharray:0, 1, 2, 3, 4, 5, 6, 7, 8, 9, 10, 11, 12, 13, 14;stroke-dashoffset:0;stroke-opacity:1"
     inkscape:connector-curvature="0" />
</svg>
