<?xml version="1.0" encoding="UTF-8" standalone="no"?>
<svg
   xmlns:dc="http://purl.org/dc/elements/1.1/"
   xmlns:cc="http://creativecommons.org/ns#"
   xmlns:rdf="http://www.w3.org/1999/02/22-rdf-syntax-ns#"
   xmlns:svg="http://www.w3.org/2000/svg"
   xmlns="http://www.w3.org/2000/svg"
   xmlns:sodipodi="http://sodipodi.sourceforge.net/DTD/sodipodi-0.dtd"
   xmlns:inkscape="http://www.inkscape.org/namespaces/inkscape"
   viewBox="0 0 499.99999 499.99999"
   id="svg2"
   version="1.1"
   inkscape:version="0.91 r13725"
   sodipodi:docname="facebook.svg"
   width="500"
   height="500">
  <metadata
     id="metadata12">
    <rdf:RDF>
      <cc:Work
         rdf:about="">
        <dc:format>image/svg+xml</dc:format>
        <dc:type
           rdf:resource="http://purl.org/dc/dcmitype/StillImage" />
        <dc:title></dc:title>
      </cc:Work>
    </rdf:RDF>
  </metadata>
  <defs
     id="defs10" />
  <sodipodi:namedview
     pagecolor="#ffffff"
     bordercolor="#666666"
     borderopacity="1"
     objecttolerance="10"
     gridtolerance="10"
     guidetolerance="10"
     inkscape:pageopacity="0"
     inkscape:pageshadow="2"
     inkscape:window-width="1920"
     inkscape:window-height="1029"
     id="namedview8"
     showgrid="false"
     inkscape:zoom="0.48094558"
     inkscape:cx="-281.30216"
     inkscape:cy="57.052693"
     inkscape:window-x="0"
     inkscape:window-y="25"
     inkscape:window-maximized="1"
     inkscape:current-layer="svg2" />
  <path
     d="m 319.71749,0.06757219 c -32.63594,-0.831488 -67.55845,5.82041901 -90.84013,30.55720081 -22.45018,22.865935 -31.59655,51.968029 -31.18082,83.148847 -0.62361,22.86593 0,47.39484 -0.62361,70.67651 l -76.91268,0.8315 0,87.30628 77.32842,0 0,227.41209 90.84013,0 0,-228.45145 c 25.56827,0 51.13654,0 76.49693,-0.41573 3.7417,-29.10211 8.31488,-58.61994 11.2251,-88.13778 l -88.13778,0 c 2.07871,-26.19189 -2.07873,-53.00739 4.15744,-78.99141 9.97786,-28.478477 46.35548,-19.539982 69.84503,-21.20296 14.55104,3.533824 19.95573,-2.078714 17.25339,-14.966782 l 0,-64.4403618 C 358.38169,1.3148042 337.59448,-0.14029981 318.88599,0.06757219 Z"
     id="path4"
     inkscape:connector-curvature="0" />
</svg>
