<?xml version="1.0" encoding="UTF-8" standalone="no"?>
<svg
   xmlns:dc="http://purl.org/dc/elements/1.1/"
   xmlns:cc="http://creativecommons.org/ns#"
   xmlns:rdf="http://www.w3.org/1999/02/22-rdf-syntax-ns#"
   xmlns:svg="http://www.w3.org/2000/svg"
   xmlns="http://www.w3.org/2000/svg"
   xmlns:sodipodi="http://sodipodi.sourceforge.net/DTD/sodipodi-0.dtd"
   xmlns:inkscape="http://www.inkscape.org/namespaces/inkscape"
   viewBox="0 0 499.99999 499.99999"
   id="svg2"
   version="1.1"
   inkscape:version="0.91 r13725"
   sodipodi:docname="instagram.svg"
   width="500"
   height="500">
  <metadata
     id="metadata12">
    <rdf:RDF>
      <cc:Work
         rdf:about="">
        <dc:format>image/svg+xml</dc:format>
        <dc:type
           rdf:resource="http://purl.org/dc/dcmitype/StillImage" />
        <dc:title></dc:title>
      </cc:Work>
    </rdf:RDF>
  </metadata>
  <defs
     id="defs10" />
  <sodipodi:namedview
     pagecolor="#ffffff"
     bordercolor="#666666"
     borderopacity="1"
     objecttolerance="10"
     gridtolerance="10"
     guidetolerance="10"
     inkscape:pageopacity="0"
     inkscape:pageshadow="2"
     inkscape:window-width="1920"
     inkscape:window-height="1029"
     id="namedview8"
     showgrid="false"
     inkscape:zoom="0.34007988"
     inkscape:cx="-599.12966"
     inkscape:cy="116.62452"
     inkscape:window-x="0"
     inkscape:window-y="25"
     inkscape:window-maximized="1"
     inkscape:current-layer="svg2" />
  <path
     d="M 151.84643,496.57256 C 94.327543,498.30277 32.700164,467.15885 14.8967,408.33145 -3.5915146,346.0436 4.62547,280.29532 2.913598,218.00747 3.5983468,155.71962 -1.366081,81.320239 50.332445,36.33458 105.62589,-12.111523 183.17368,3.4604377 249.93667,1.5821799e-6 318.75392,3.1143937 399.55426,-12.111523 454.67653,40.833146 c 52.72565,51.906541 40.57136,131.496564 42.79679,198.975064 -4.10848,67.4785 11.29835,142.74298 -28.24589,202.4355 -37.66117,57.09721 -111.27165,58.48138 -172.89904,57.61626 -46.22053,-1.03812 -95.86481,0 -142.08534,-1.73021 z m 216.2094,-44.98567 c 47.93241,-3.11438 83.88172,-47.92704 83.36813,-95.68106 0.85595,-76.47563 3.42375,-153.47032 -1.71186,-230.11899 C 445.26123,78.205863 401.09494,45.504735 355.55915,46.196822 280.92156,43.428473 205.94158,41.525234 131.30397,47.580997 83.371562,49.83028 49.476508,94.296889 48.620572,141.01277 c -1.369497,76.64865 -4.279679,153.98939 1.711873,230.11898 4.10849,46.36986 44.851029,80.97421 90.044445,81.32026 72.75454,3.46043 145.50909,1.38417 218.43482,0.51905 l 9.07293,-1.03812 z M 228.70947,375.4573 C 155.61255,365.42204 106.48183,283.23668 128.22259,212.81681 145.34132,141.01277 230.9349,100.35264 297.6979,130.28542 c 75.32235,27.68348 102.7123,130.63145 54.77989,193.26535 -27.38994,38.9299 -78.7461,59.86554 -124.96664,51.21445 z m 43.48154,-46.71588 c 55.80701,-13.84175 80.80035,-91.00946 40.74254,-134.0919 -35.9493,-48.10005 -116.0649,-34.60436 -138.6616,19.55146 -27.38996,55.71303 25.3357,127.34405 85.59358,116.44368 l 11.98309,0 z M 376.61518,143.60809 c -58.20365,-15.22592 10.27123,-97.584289 33.55268,-37.71875 6.84749,20.76261 -13.18141,42.73639 -33.72387,38.0648 z"
     id="path4"
     inkscape:connector-curvature="0" />
</svg>
