<?xml version="1.0" encoding="UTF-8" standalone="no"?>
<svg
   xmlns:dc="http://purl.org/dc/elements/1.1/"
   xmlns:cc="http://creativecommons.org/ns#"
   xmlns:rdf="http://www.w3.org/1999/02/22-rdf-syntax-ns#"
   xmlns:svg="http://www.w3.org/2000/svg"
   xmlns="http://www.w3.org/2000/svg"
   width="573.21869"
   height="390.50778"
   viewBox="0 0 573.2187 390.50781"
   id="svg2"
   version="1.1">
  <defs
     id="defs4" />
  <metadata
     id="metadata7">
    <rdf:RDF>
      <cc:Work
         rdf:about="">
        <dc:format>image/svg+xml</dc:format>
        <dc:type
           rdf:resource="http://purl.org/dc/dcmitype/StillImage" />
        <dc:title></dc:title>
      </cc:Work>
    </rdf:RDF>
  </metadata>
  <g
     id="layer1"
     transform="translate(-23.406612,-313.98047)">
    <path
       style="opacity:1;fill:#c83737;fill-opacity:1;stroke:none;stroke-width:1;stroke-linecap:round;stroke-linejoin:round;stroke-miterlimit:4;stroke-dasharray:0, 1, 2, 3, 4, 5, 6, 7, 8, 9, 10, 11, 12, 13, 14;stroke-dashoffset:0;stroke-opacity:1"
       d="m 260.26791,313.98047 0,89.9043 304.49609,0 a 480,480 0 0 1 29.20703,-89.9043 l -333.70312,0 z m -118.70313,150.20312 0,89.9043 413.76368,0 a 473.13789,360 0 0 1 -0.26758,-8.93945 480,480 0 0 1 -1.75586,-38.5 480,480 0 0 1 2.125,-42.46485 l -413.86524,0 z m -118.158199,150.40039 0,89.9043 573.218749,0 a 480,480 0 0 1 -30.42187,-89.9043 l -542.796879,0 z"
       id="rect4136-7" />
  </g>
</svg>
