<?xml version="1.0" encoding="UTF-8" standalone="no"?>
<svg
   xmlns:dc="http://purl.org/dc/elements/1.1/"
   xmlns:cc="http://creativecommons.org/ns#"
   xmlns:rdf="http://www.w3.org/1999/02/22-rdf-syntax-ns#"
   xmlns:svg="http://www.w3.org/2000/svg"
   xmlns="http://www.w3.org/2000/svg"
   xmlns:sodipodi="http://sodipodi.sourceforge.net/DTD/sodipodi-0.dtd"
   xmlns:inkscape="http://www.inkscape.org/namespaces/inkscape"
   viewBox="0 0 499.99999 499.99999"
   id="svg2"
   version="1.1"
   inkscape:version="0.91 r13725"
   sodipodi:docname="twitter.svg"
   width="500"
   height="500">
  <metadata
     id="metadata12">
    <rdf:RDF>
      <cc:Work
         rdf:about="">
        <dc:format>image/svg+xml</dc:format>
        <dc:type
           rdf:resource="http://purl.org/dc/dcmitype/StillImage" />
        <dc:title></dc:title>
      </cc:Work>
    </rdf:RDF>
  </metadata>
  <defs
     id="defs10" />
  <sodipodi:namedview
     pagecolor="#ffffff"
     bordercolor="#666666"
     borderopacity="1"
     objecttolerance="10"
     gridtolerance="10"
     guidetolerance="10"
     inkscape:pageopacity="0"
     inkscape:pageshadow="2"
     inkscape:window-width="1920"
     inkscape:window-height="1029"
     id="namedview8"
     showgrid="false"
     inkscape:zoom="0.34007988"
     inkscape:cx="-1018.4941"
     inkscape:cy="262.2772"
     inkscape:window-x="0"
     inkscape:window-y="25"
     inkscape:window-maximized="1"
     inkscape:current-layer="svg2" />
  <path
     d="M 130.28415,437.7655 C 88.704098,434.87617 47.817057,422.99781 10.395014,403.25406 L 2e-6,397.31489 l 17.325025,0.32103 c 39.847531,0.96311 77.962561,-8.02589 110.880103,-25.6829 12.12752,-6.90231 22.52252,-13.96511 22.52252,-14.7677 0,-0.32103 -1.73249,-0.64208 -5.19749,-0.64208 -6.93002,0 -19.05752,-2.56828 -27.72005,-6.09968 -24.255002,-8.82851 -46.777532,-28.41175 -55.786542,-50.72379 -1.73249,-4.01294 -2.94526,-7.38383 -2.77201,-7.54434 0,0 4.33126,0 9.35553,0.64205 8.66249,0 25.98752,-1.60517 32.917512,-3.21034 3.46502,-1.6052 2.94526,-1.6052 -5.197502,-3.21038 -39.84754,-11.23626 -68.433806,-44.94512 -71.552319,-83.4695 -1.039492,-8.02592 -0.866241,-9.63109 0.519756,-8.02592 17.325008,6.42074 24.948033,8.02592 38.115043,9.6311 l 6.93,0 -3.46501,-2.40778 c -6.93,-4.81553 -19.057511,-16.05182 -23.908521,-21.66995 -20.790025,-27.28811 -24.948029,-64.20732 -9.875258,-93.100612 5.197498,-12.35989 8.142758,-6.420726 13.860011,0.802586 22.002768,23.114646 54.2273,46.068766 85.75884,60.996966 24.25502,11.55731 46.77755,18.62011 72.76507,24.07773 13.86001,2.08676 41.58004,4.81555 41.58004,4.01296 1.21275,-0.64208 0,-3.21036 0,-6.42073 -5.54401,-33.70884 8.66253,-67.41768 36.38253,-88.285053 43.31255,-28.893296 94.9411,-25.682932 131.32362,1.605184 l 8.66253,6.420726 9.3555,-1.605172 c 25.98753,-3.531419 69.30007,-38.524396 42.09981,3.210356 -5.19752,7.544361 -17.32505,18.620129 -24.94804,24.077739 l -6.93003,4.01296 c 0,0 5.19752,-0.48156 10.39503,-1.60519 11.08802,-1.60517 31.18505,-6.90228 40.54054,-10.43368 L 500,106.6163 l -6.93001,8.50747 c -8.6625,10.11264 -22.52253,23.27515 -34.65002,32.10367 l -10.39502,8.0259 0,14.44663 c 0,60.99695 -24.77479,122.63597 -69.30007,172.71767 -10.04852,11.23628 -31.18503,30.49848 -42.4463,38.52438 -27.20026,19.26221 -67.04781,36.91922 -103.95009,44.94511 -32.91754,7.22333 -64.10257,9.63111 -98.40611,7.06282 z"
     id="path4"
     inkscape:connector-curvature="0" />
</svg>
