<?xml version="1.0" encoding="UTF-8" standalone="no"?>
<svg
   xmlns:dc="http://purl.org/dc/elements/1.1/"
   xmlns:cc="http://creativecommons.org/ns#"
   xmlns:rdf="http://www.w3.org/1999/02/22-rdf-syntax-ns#"
   xmlns:svg="http://www.w3.org/2000/svg"
   xmlns="http://www.w3.org/2000/svg"
   xmlns:sodipodi="http://sodipodi.sourceforge.net/DTD/sodipodi-0.dtd"
   xmlns:inkscape="http://www.inkscape.org/namespaces/inkscape"
   viewBox="0 0 499.99999 499.99999"
   id="svg2"
   version="1.1"
   inkscape:version="0.91 r13725"
   sodipodi:docname="circle-youtube (copy 1).svg"
   width="500"
   height="500">
  <metadata
     id="metadata12">
    <rdf:RDF>
      <cc:Work
         rdf:about="">
        <dc:format>image/svg+xml</dc:format>
        <dc:type
           rdf:resource="http://purl.org/dc/dcmitype/StillImage" />
        <dc:title></dc:title>
      </cc:Work>
    </rdf:RDF>
  </metadata>
  <defs
     id="defs10" />
  <sodipodi:namedview
     pagecolor="#ffffff"
     bordercolor="#666666"
     borderopacity="1"
     objecttolerance="10"
     gridtolerance="10"
     guidetolerance="10"
     inkscape:pageopacity="0"
     inkscape:pageshadow="2"
     inkscape:window-width="1920"
     inkscape:window-height="1029"
     id="namedview8"
     showgrid="false"
     inkscape:zoom="1.3603195"
     inkscape:cx="152.00748"
     inkscape:cy="259.38681"
     inkscape:window-x="0"
     inkscape:window-y="25"
     inkscape:window-maximized="1"
     inkscape:current-layer="svg2" />
  <path
     d="m 198.38334,314.85277 -0.0222,-140.48332 135.09999,70.48332 -135.07777,70 z M 495.01111,150.03055 c 0,0 -4.88889,-34.45555 -19.88333,-49.63333 -19.00556,-19.911105 -40.32223,-20.005555 -50.09445,-21.172215 -69.96666,-5.06111 -174.92222,-5.06111 -174.92222,-5.06111 l -0.22222,0 c 0,0 -104.94999,0 -174.922209,5.06111 -9.77223,1.16666 -31.077779,1.26111 -50.09446,21.172215 C 9.8777715,115.575 4.9999985,150.03055 4.9999985,150.03055 c 0,0 -5,40.46111 -5,80.92222 l 0,37.93889 c 0,40.45555 5,80.91666 5,80.91666 0,0 4.877773,34.45556 19.8722225,49.63334 19.016681,19.91666 44.00001,19.27777 55.12779,21.36666 C 120.00556,424.64721 250,425.8361 250,425.8361 c 0,0 105.06667,-0.16089 175.03333,-5.21667 9.77222,-1.16666 31.08889,-1.26111 50.09445,-21.17777 14.99444,-15.17778 19.88333,-49.63334 19.88333,-49.63334 0,0 4.98889,-40.46111 4.98889,-80.91666 l 0,-37.93889 c 0,-40.46111 -4.98889,-80.92222 -4.98889,-80.92222"
     style="fill:#000000;fill-opacity:1;fill-rule:nonzero;stroke:none"
     id="path578"
     inkscape:connector-curvature="0" />
</svg>
